<?xml version="1.0" encoding="utf-8"?>
<!-- Generator: Adobe Illustrator 18.1.0, SVG Export Plug-In . SVG Version: 6.00 Build 0)  -->
<svg version="1.1" id="Laag_1" xmlns="http://www.w3.org/2000/svg" xmlns:xlink="http://www.w3.org/1999/xlink" x="0px" y="0px"
	 viewBox="0 0 1377.1 87.5" enable-background="new 0 0 1377.1 87.5" xml:space="preserve">
<g>
	<path fill="#004682" d="M81.8,28.3h10.4l13.5,46.4l13.1-46.4h10.7l13.6,46.4l13.5-46.4h10l-18.3,57.8h-10.5L124,40.4l-13.1,45.6
		h-10.7L81.8,28.3z"/>
	<path fill="#004682" d="M209,78.9c-3.6,5.2-10,8.6-19,8.6c-12.6,0-21.1-6.3-21.1-17.1c0-11.1,8.5-18.1,28-18.1h11.4v-2
		c0-8.9-2.6-15.3-13.5-15.3c-9.5,0-13.4,4.8-14.1,11.7h-9.5c1.3-14.7,12.2-19.9,24.3-19.9c10.5,0,22.9,3.9,22.9,22.4v36.8h-7
		L209,78.9z M208.4,70.2V59.5h-10.1c-14.1,0-18.9,4-18.9,10.6c0,6.1,4,9.8,12,9.8C198.2,79.8,204.9,77.4,208.4,70.2z"/>
	<path fill="#004682" d="M268.4,78.9c-3.6,5.2-10,8.6-19,8.6c-12.6,0-21.1-6.3-21.1-17.1c0-11.1,8.5-18.1,28.1-18.1h11.4v-2
		c0-8.9-2.6-15.3-13.5-15.3c-9.5,0-13.4,4.8-14.1,11.7h-9.5c1.3-14.7,12.2-19.9,24.3-19.9c10.5,0,22.9,3.9,22.9,22.4v36.8h-7
		L268.4,78.9z M267.8,70.2V59.5h-10.1c-14.1,0-18.9,4-18.9,10.6c0,6.1,4,9.8,12,9.8C257.6,79.8,264.3,77.4,267.8,70.2z"/>
	<path fill="#004682" d="M291.5,0h10.1v55.4l27.8-27.1h12.2l-22.4,21.8l22.6,36h-11.7l-18.2-29.4l-10.4,9.8v19.6h-10.1V0z"/>
	<path fill="#004682" d="M346.5,80.8l31.9-44.3h-31.1v-8.2h44.4v5l-31.5,44.3h32.5v8.4h-46.2V80.8z"/>
	<path fill="#004682" d="M439.3,78.9c-3.6,5.2-10,8.6-19,8.6c-12.6,0-21.1-6.3-21.1-17.1c0-11.1,8.5-18.1,28.1-18.1h11.4v-2
		c0-8.9-2.6-15.3-13.5-15.3c-9.5,0-13.4,4.8-14.1,11.7h-9.5c1.3-14.7,12.2-19.9,24.3-19.9c10.5,0,22.9,3.9,22.9,22.4v36.8h-7
		L439.3,78.9z M438.7,70.2V59.5h-10.1c-14.1,0-18.9,4-18.9,10.6c0,6.1,4,9.8,12,9.8C428.4,79.8,435.2,77.4,438.7,70.2z"/>
	<path fill="#004682" d="M498.6,78.9c-3.6,5.2-10,8.6-19,8.6c-12.6,0-21.1-6.3-21.1-17.1c0-11.1,8.5-18.1,28-18.1h11.4v-2
		c0-8.9-2.7-15.3-13.5-15.3c-9.5,0-13.4,4.8-14.1,11.7H461c1.3-14.7,12.2-19.9,24.3-19.9c10.5,0,22.9,3.9,22.9,22.4v36.8h-7
		L498.6,78.9z M498.1,70.2V59.5h-10.1c-14.1,0-18.9,4-18.9,10.6c0,6.1,4,9.8,12,9.8C487.8,79.8,494.6,77.4,498.1,70.2z"/>
	<path fill="#004682" d="M531.9,86.1h-10.1V28.3h7l2.5,7.5c3.3-5.2,9.1-8.9,17.3-8.9c8.2,0,14.4,3.4,17.4,10.6
		c3.5-6.1,9.9-10.6,18.8-10.6c11.8,0,19.5,7,19.5,22.3v37h-10.1V50.8c0-10.2-3.6-15.2-12.4-15.2c-6.1,0-11.4,3.7-13.7,9.9v40.6H558
		V50.8c0-10.2-3.6-15.2-12.4-15.2c-6.3,0-11.4,3.7-13.7,9.9V86.1z"/>
	<path fill="#004682" d="M633.1,57.1c0-16.6,9.5-30.2,27.5-30.2c17.9,0,27.3,13.7,27.3,30.4v1.6h-44.8c0,10.6,5.7,20.4,18,20.4
		c7.6,0,14.2-3.6,15.9-10.6h9.9c-1.9,12.8-13.9,19-26.2,19C642.1,87.5,633.1,73.3,633.1,57.1z M643.4,51.5h34.1
		c-1.2-9.3-7.2-16.6-17-16.6C650.6,34.9,644.6,42.2,643.4,51.5z"/>
	<path fill="#004682" d="M708.5,86.1h-10.1V28.3h7l2.5,7.5c3.4-5.1,9.6-8.9,18.2-8.9c12.3,0,20.5,7,20.5,22.3v37h-10.1V50.8
		c0-10.2-3.9-15.2-13.2-15.2c-6.5,0-12.3,3.7-14.7,9.9V86.1z"/>
	<path fill="#004682" d="M819.6,78.2c-3.6,5.4-9.4,9.3-18.3,9.3c-16.7,0-26-14.2-26-30.3c0-16.1,9.3-30.4,26-30.4
		c8.4,0,14.2,3.5,17.8,8.8V0h10.1v86.1h-7L819.6,78.2z M819.1,68.8V45.5c-3-6.4-8.5-10-15.6-10c-10.5,0-17.7,8.4-17.7,21.7
		c0,13.2,7.2,21.7,17.7,21.7C810.6,78.9,816.1,75.2,819.1,68.8z"/>
	<path fill="#004682" d="M841.7,9.6c0-4,3-6.9,6.9-6.9c3.8,0,6.8,2.9,6.8,6.9c0,4-3,6.9-6.8,6.9C844.7,16.5,841.7,13.6,841.7,9.6z
		 M843.4,28.3h10.1v57.8h-10.1V28.3z"/>
	<path fill="#004682" d="M863.8,57.1c0-16.6,9.5-30.2,27.4-30.2c17.9,0,27.3,13.7,27.3,30.4v1.6h-44.8c0,10.6,5.6,20.4,18.1,20.4
		c7.6,0,14.2-3.6,15.9-10.6h9.9c-1.9,12.8-13.9,19-26.2,19C872.9,87.5,863.8,73.3,863.8,57.1z M874.2,51.5h34.1
		c-1.2-9.3-7.2-16.6-17-16.6C881.4,34.9,875.4,42.2,874.2,51.5z"/>
	<path fill="#004682" d="M939.3,86.1h-10.1V28.3h7l2.5,7.5c3.4-5.1,9.6-8.9,18.2-8.9c12.3,0,20.5,7,20.5,22.3v37h-10.1V50.8
		c0-10.2-3.8-15.2-13.3-15.2c-6.5,0-12.3,3.7-14.7,9.9V86.1z"/>
	<path fill="#004682" d="M986.7,67.8h9.8c0.5,6.9,6.1,12,15.8,12c7.1,0,13.3-3,13.3-9.4c0-4.3-2.8-6.7-10.9-8.7l-7.3-1.8
		c-11.3-2.8-17.9-7-17.9-16.4c0-12.5,11.8-16.7,22.1-16.7c12.9,0,21.8,6.2,22.8,18.1h-9.7c-0.6-6-5.4-10.4-13.4-10.4
		c-6,0-11.8,2.5-11.8,8.2c0,4.9,4.5,7.1,11.1,8.6l7.5,1.8c11.1,2.6,17.6,6.6,17.6,16.4c0,13.7-12.6,17.9-23.6,17.9
		C997.8,87.5,987.6,80.8,986.7,67.8z"/>
	<path fill="#004682" d="M1049.5,69.8V36.3h-9.8v-8.1h9.8V17.6l5.5-4.7h4.6v15.4h15.2v8.1h-15.2v33c0,6.5,2.8,9.3,14.6,9.3v7.5
		c-2,0.4-4.6,0.6-7.3,0.6C1054,86.7,1049.5,80.5,1049.5,69.8z"/>
	<path fill="#004682" d="M1092,78.2l-2.6,7.8h-7V0h10.1v35.6c3.6-5.3,9.4-8.8,17.8-8.8c16.7,0,26,14.2,26,30.4
		c0,16.1-9.3,30.3-26,30.3C1101.4,87.5,1095.6,83.7,1092,78.2z M1125.8,57.2c0-13.3-7.2-21.7-17.7-21.7c-7.1,0-12.6,3.6-15.7,10
		v23.3c3,6.4,8.6,10,15.7,10C1118.6,78.9,1125.8,70.4,1125.8,57.2z"/>
	<path fill="#004682" d="M1182.9,78.9c-3.6,5.2-10,8.6-19,8.6c-12.6,0-21.1-6.3-21.1-17.1c0-11.1,8.5-18.1,28-18.1h11.4v-2
		c0-8.9-2.6-15.3-13.5-15.3c-9.5,0-13.4,4.8-14.1,11.7h-9.5c1.3-14.7,12.2-19.9,24.3-19.9c10.5,0,22.9,3.9,22.9,22.4v36.8h-7
		L1182.9,78.9z M1182.3,70.2V59.5h-10.1c-14.1,0-18.9,4-18.9,10.6c0,6.1,4,9.8,12.1,9.8C1172.1,79.8,1178.8,77.4,1182.3,70.2z"/>
	<path fill="#004682" d="M1242.3,78.9c-3.6,5.2-10,8.6-19,8.6c-12.6,0-21.1-6.3-21.1-17.1c0-11.1,8.5-18.1,28-18.1h11.4v-2
		c0-8.9-2.6-15.3-13.5-15.3c-9.5,0-13.4,4.8-14.1,11.7h-9.5c1.3-14.7,12.2-19.9,24.3-19.9c10.5,0,22.9,3.9,22.9,22.4v36.8h-7
		L1242.3,78.9z M1241.7,70.2V59.5h-10.1c-14.1,0-18.9,4-18.9,10.6c0,6.1,4,9.8,12.1,9.8C1231.5,79.8,1238.2,77.4,1241.7,70.2z"/>
	<path fill="#004682" d="M1265.4,86.1V28.3h7l2.8,8.4c2.9-5.4,8.1-9.3,15-9.3c1.9,0,4.6,0.2,6.4,0.9v8.9h-3.8
		c-9.6,0-14.7,3.5-17.3,9.9v39H1265.4z"/>
	<path fill="#004682" d="M0,57.2l23.8-28.9h11.6L13.2,57.2l22.2,28.9H23.8L0,57.2z"/>
	<path fill="#004682" d="M24.4,57.2l23.8-28.9h11.6L37.6,57.2l22.2,28.9H48.2L24.4,57.2z"/>
	<path fill="#004682" d="M1353.2,86.1h-11.6l22.2-28.9l-22.2-28.9h11.6l23.8,28.9L1353.2,86.1z"/>
	<path fill="#004682" d="M1328.8,86.1h-11.6l22.2-28.9l-22.2-28.9h11.6l23.8,28.9L1328.8,86.1z"/>
</g>
</svg>
